#!OML:ASF E:/inclinewalkrobotboard/Project1/Captureday1/Session1/subject1.ASF
:FULLY-SPECIFIED
:DEGREES
226
root 0 0 0 -3.5376500627660574 -1.012354142417042 -4.374223639875241
lowerback 11.463025939244767 -1.0864416939781076 1.5756232113062376
upperback 0.8079123316250172 -1.0687167924469587 3.009028424210534
thorax -5.5725575622235155 -0.5346193289222398 2.429463348313488
lowerneck -16.392848483745357 -2.537872029833251 -1.68020375199049
upperneck 17.788296757548146 -2.9244729679706944 -0.34794656059582874
head 8.22566387459346 -1.5581130276517043 -0.20486442010033085
rclavicle -9.025571292185299E-16 -4.5886277888265175E-15
rhumerus -35.13158341932335 -23.724700869950375 -77.74556274698449
rradius 18.321925856372822
rwrist 8.377104623378695
rhand -17.7988037917278 25.89195100040945
rfingers 7.125020000000022
rthumb 8.459567177842892 -3.9022519687178843
lclavicle -3.3949794686374928E-15 -5.9453590544225595E-15
lhumerus -29.789658140094396 -1.9230136281566448 83.13371009556856
lradius 29.348868956013884
lwrist 6.6730413577720675
lhand -27.582398705837953 24.90077137543843
lfingers 7.125020000000019
lthumb -0.988791240694602 54.88693660554475
rfemur -18.3790864794462 6.930572307068372 26.54992530554289
rtibia 25.455335545245376
rfoot -9.671167106957679 -5.669551552626093
rtoes 9.973708517458329
lfemur -10.935432126569035 1.7443162205768763 -13.227829863532632
ltibia 66.05111637633979
lfoot 12.903634308994654 -17.861145540570295
ltoes -8.181430682511955
227
root 0 0 0 -3.9109472505007776 -2.4208046578713356 -5.325380784072012
lowerback 11.880395494951255 -0.3369237224177045 2.717048863278014
upperback 0.6012203840531753 0.07808222323719538 2.9761097976364677
thorax -6.0414964731515415 0.0070699245256689025 1.5752459638741563
lowerneck -15.768128879900145 -2.749727653934766 -1.4274403046628619
upperneck 19.109639172885934 -3.3216394439228827 -0.1508277959336084
head 8.697735456057938 -1.70441070640937 -0.23374088798600817
rclavicle -1.9988175054286643E-15 -5.107903575099882E-15
rhumerus -34.2891103523099 -22.778757628348814 -78.17539210664485
rradius 18.785982562003888
rwrist 8.274290268618387
rhand -17.762781477735608 26.281568894563463
rfingers 7.125020000000021
rthumb 8.494355604068314 -3.5094690077650554
lclavicle -4.28321642432854E-15 -6.2749250805398456E-15
lhumerus -30.73861621760454 -1.1094168086144143 83.69258108087797
lradius 28.294196305526523
lwrist 6.430979356655605
lhand -27.681339190496153 24.546193099509182
lfingers 7.125020000000025
lthumb -1.0848116784353135 54.5324928866556
rfemur -12.568630303872691 7.747232715611997 30.2692507690436
rtibia 26.044857068790122
rfoot -13.488988363183353 -5.8662840497045305
rtoes 10.72842201845083
lfemur -19.466840531299876 3.9147170927742065 -11.767605819426517
ltibia 71.67593267742188
lfoot 6.979091145155817 -13.708565852978577
ltoes -9.26981618152984
228
root 0 0 0 -3.7899947820617435 -3.9425745741738303 -6.144169464023131
lowerback 11.36026914912464 0.615601461904048 4.062916105965514
upperback 0.09070188650642194 1.4966208008291995 2.6599248623506178
thorax -6.25013045498024 0.6658944129369532 0.27052163524976025
lowerneck -16.089439308774736 -2.896151509565865 -1.0993295920026007
upperneck 20.40853700631035 -3.7081802378773387 0.09722589687965022
head 9.235686406037525 -1.8029949672029348 -0.2621706207367765
rclavicle -5.211907045042013E-15 -1.7726795931724685E-15
rhumerus -33.46307673874482 -21.362833500699068 -78.83254353570585
rradius 20.061166271177626
rwrist 7.322625960343344
rhand -17.888000276506755 26.214949866776365
rfingers 7.125020000000019
rthumb 8.375531565017532 -3.5834638091945834
lclavicle -7.17663938753079E-15 -2.636470432230223E-15
lhumerus -31.832487144031333 -0.37758880413825135 84.0728781953851
lradius 27.414154514880845
lwrist 6.304236840860084
lhand -27.647233676146875 24.60713084302203
lfingers 7.125020000000028
lthumb -1.0505845560115654 54.59334437277264
rfemur -5.96266549254663 8.423694975889823 34.3643612164663
rtibia 25.63953441273721
rfoot -19.913150055119008 -6.1217104268661515
rtoes 10.567476235401971
lfemur -23.392218866959677 4.643913907630395 -11.992672210232676
ltibia 70.76553322589893
lfoot 3.1626486368631106 -10.63223874678615
ltoes -7.321999781887474
229
root 0 0 0 -2.7251973741144813 -4.934699904417637 -7.036917621177912
lowerback 10.264932980852736 1.3403407482856855 5.650845018402688
upperback -0.208683775264762 2.6190684703963787 2.421633722089805
thorax -5.853206223045896 1.1753220405649265 -1.0276913784126496
lowerneck -17.83587358399525 -3.072993758662588 -1.44918260128255
upperneck 21.54667413805151 -4.019719795805216 0.2482894175101127
head 9.848362361249482 -1.9012311346819881 -0.22058303161444892
rclavicle -7.226293237663422E-15 1.958379022663139E-15
rhumerus -32.392703379065225 -19.482491335894544 -79.59432613769944
rradius 22.046338279230675
rwrist 5.61369844186495
rhand -18.16354246479426 26.039375864593687
rfingers 7.125020000000017
rthumb 8.111180522938566 -3.7720228557285225
lclavicle -8.700712379717422E-15 1.1554705209309015E-15
lhumerus -32.60020904877499 -0.0691793553052937 84.28239270137354
lradius 27.016562772391886
lwrist 6.253966460924975
lhand -27.556369284578075 24.671045765986822
lfingers 7.125020000000028
lthumb -0.9601576983332532 54.659250577881835
rfemur -4.922767047714081 8.328927323071706 34.70593207633384
rtibia 25.18326701316511
rfoot -21.78290647311253 -6.379306660224222
rtoes 10.13724543209429
lfemur -27.563004362221506 4.410722418768574 -12.68137239601264
ltibia 61.51094868805771
lfoot -2.1026616356391923 -5.730464976161633
ltoes -3.2876718089887795
230
root 0 0 0 -1.799542244556666 -5.664071525443811 -7.510489220574755
lowerback 10.604834919521116 1.7515383075773427 6.468569301432074
upperback 0.3439864384001038 3.238228041577009 2.2886770949562973
thorax -5.379634046809321 1.4592688936946345 -1.7056612833507434
lowerneck -18.73600275995291 -3.2261117486637514 -1.8363763161854174
upperneck 20.740881957699425 -4.165819740601163 0.30426755952135864
head 9.688890087130725 -1.9819313684832167 -0.16243800225226857
rclavicle -7.258477176167655E-15 2.8315789022544867E-15
rhumerus -31.248843924285165 -17.353175273944863 -80.47394700320741
rradius 24.031316975628357
rwrist 4.281426207977453
rhand -18.45793570484494 26.15166898523237
rfingers 7.125020000000015
rthumb 7.826034220796247 -3.6916652639406067
lclavicle -8.046158235861342E-15 2.182704225585966E-15
lhumerus -33.02230714968915 0.25959654751693545 84.49066272723118
lradius 26.615202890582353
lwrist 6.163218567688544
lhand -27.564367293032802 24.500017286010518
lfingers 7.1250200000000286
lthumb -0.9675748787169987 54.4914258340617
rfemur -4.277767541718682 8.301121296333838 34.5236915992349
rtibia 24.53425214675409
rfoot -22.14705434578333 -6.671935983125847
rtoes 9.605166614496017
lfemur -29.66926692850203 2.6340972216803973 -13.434078843713072
ltibia 45.1272234346737
lfoot -6.420111321640656 -0.7366973667044951
ltoes -1.1754464891684009
